<?xml version="1.0" encoding="UTF-8"?>
<!DOCTYPE svg PUBLIC "-//W3C//DTD SVG 1.1//EN" "http://www.w3.org/Graphics/SVG/1.1/DTD/svg11.dtd">
<!-- Creator: CorelDRAW Standard 2021 (64-Bit Versión de evaluación) -->
<svg xmlns="http://www.w3.org/2000/svg" xml:space="preserve" width="215.9mm" height="279.4mm" version="1.1" style="shape-rendering:geometricPrecision; text-rendering:geometricPrecision; image-rendering:optimizeQuality; fill-rule:evenodd; clip-rule:evenodd"
viewBox="0 0 21590 27940"
 xmlns:xlink="http://www.w3.org/1999/xlink"
 xmlns:xodm="http://www.corel.com/coreldraw/odm/2003">
 <defs>
    <clipPath id="id0">
     <rect x="5551.77" y="23084.5" width="1182.64" height="1773.65"/>
    </clipPath>
    <clipPath id="id1">
     <rect x="6994.21" y="20745.8" width="1182.64" height="1773.65"/>
    </clipPath>
    <clipPath id="id2">
     <rect x="6045.53" y="18274.92" width="1182.63" height="1773.64"/>
    </clipPath>
    <clipPath id="id3">
     <rect x="4821.48" y="16165.81" width="1182.63" height="1773.64"/>
    </clipPath>
    <clipPath id="id4">
     <rect x="4452.39" y="13687.61" width="1182.63" height="1773.64"/>
    </clipPath>
    <clipPath id="id5">
     <rect x="9244.14" y="11438.03" width="1182.64" height="1773.64"/>
    </clipPath>
    <clipPath id="id6">
     <rect x="15728.22" y="23233.13" width="1182.63" height="1773.65"/>
    </clipPath>
    <clipPath id="id7">
     <rect x="11592.84" y="20693.07" width="1182.63" height="1773.65"/>
    </clipPath>
    <clipPath id="id8">
     <rect x="10738.3" y="18433.1" width="1182.64" height="1773.65"/>
    </clipPath>
    <clipPath id="id9">
     <rect x="10135.66" y="15902.17" width="1182.64" height="1773.65"/>
    </clipPath>
    <clipPath id="id10">
     <rect x="11476.48" y="13634.88" width="1182.64" height="1773.64"/>
    </clipPath>
    <clipPath id="id11">
     <rect x="7723.71" y="11438.03" width="1182.63" height="1773.64"/>
    </clipPath>
    <clipPath id="id12">
     <rect x="1917.1" y="20798.54" width="1182.64" height="1773.65"/>
    </clipPath>
    <clipPath id="id13">
     <rect x="7563.32" y="18274.92" width="1182.64" height="1773.64"/>
    </clipPath>
    <clipPath id="id14">
     <rect x="6508.77" y="16113.08" width="1182.63" height="1773.64"/>
    </clipPath>
    <clipPath id="id15">
     <rect x="12858.72" y="13625.33" width="1182.63" height="1773.64"/>
    </clipPath>
    <clipPath id="id16">
     <rect x="10712.14" y="11438.03" width="1182.63" height="1773.64"/>
    </clipPath>
    <clipPath id="id17">
     <rect x="14539.35" y="23233.13" width="1182.64" height="1773.65"/>
    </clipPath>
    <clipPath id="id18">
     <rect x="15905.19" y="20482.16" width="1182.64" height="1773.65"/>
    </clipPath>
    <clipPath id="id19">
     <rect x="16538.34" y="18219.85" width="1182.64" height="1773.65"/>
    </clipPath>
    <clipPath id="id20">
     <rect x="17193.28" y="23233.14" width="1182.64" height="1773.64"/>
    </clipPath>
    <clipPath id="id21">
     <rect x="13016.48" y="20640.35" width="1182.64" height="1773.64"/>
    </clipPath>
    <clipPath id="id22">
     <rect x="11939.72" y="18284.47" width="1182.64" height="1773.64"/>
    </clipPath>
    <clipPath id="id23">
     <rect x="13393.47" y="15763.09" width="1182.64" height="1773.64"/>
    </clipPath>
    <clipPath id="id24">
     <rect x="6783.72" y="13529.43" width="1182.64" height="1773.64"/>
    </clipPath>
    <clipPath id="id25">
     <rect x="13962.71" y="11280.74" width="1182.64" height="1773.64"/>
    </clipPath>
    <clipPath id="id26">
     <rect x="10678.91" y="23233.13" width="1182.64" height="1773.65"/>
    </clipPath>
    <clipPath id="id27">
     <rect x="5254.2" y="20745.8" width="1182.63" height="1773.65"/>
    </clipPath>
    <clipPath id="id28">
     <rect x="14945.2" y="18485.83" width="1182.64" height="1773.64"/>
    </clipPath>
    <clipPath id="id29">
     <rect x="3397.83" y="16113.08" width="1182.64" height="1773.64"/>
    </clipPath>
    <clipPath id="id30">
     <rect x="14587.42" y="13687.61" width="1182.64" height="1773.64"/>
    </clipPath>
    <clipPath id="id31">
     <rect x="12524.38" y="23338.58" width="1182.64" height="1773.65"/>
    </clipPath>
    <clipPath id="id32">
     <rect x="14481.55" y="20587.62" width="1182.63" height="1773.64"/>
    </clipPath>
    <clipPath id="id33">
     <rect x="13574.28" y="18380.37" width="1182.64" height="1773.65"/>
    </clipPath>
    <clipPath id="id34">
     <rect x="14933.89" y="15964.45" width="1182.63" height="1773.64"/>
    </clipPath>
    <clipPath id="id35">
     <rect x="9020.49" y="23127.68" width="1182.63" height="1773.64"/>
    </clipPath>
    <clipPath id="id36">
     <rect x="3461.45" y="20851.25" width="1182.64" height="1773.65"/>
    </clipPath>
    <clipPath id="id37">
     <rect x="9367.38" y="18433.1" width="1182.64" height="1773.65"/>
    </clipPath>
    <clipPath id="id38">
     <rect x="11758.91" y="15700.81" width="1182.64" height="1773.65"/>
    </clipPath>
    <clipPath id="id39">
     <rect x="8312.82" y="13634.88" width="1182.64" height="1773.64"/>
    </clipPath>
    <clipPath id="id40">
     <rect x="5888.71" y="11385.6" width="1182.64" height="1773.64"/>
    </clipPath>
    <clipPath id="id41">
     <rect x="7122.29" y="23127.68" width="1182.63" height="1773.64"/>
    </clipPath>
    <clipPath id="id42">
     <rect x="8312.4" y="20587.62" width="1182.64" height="1773.64"/>
    </clipPath>
    <clipPath id="id43">
     <rect x="2542.87" y="18284.47" width="1182.64" height="1773.65"/>
    </clipPath>
    <clipPath id="id44">
     <rect x="7299.68" y="16069.91" width="1182.64" height="1773.64"/>
    </clipPath>
    <clipPath id="id45">
     <rect x="5635.02" y="13687.61" width="1182.64" height="1773.64"/>
    </clipPath>
    <clipPath id="id46">
     <rect x="12113.11" y="11385.6" width="1182.64" height="1773.64"/>
    </clipPath>
    <clipPath id="id47">
     <rect x="3889.6" y="23103.18" width="1182.64" height="1773.65"/>
    </clipPath>
    <clipPath id="id48">
     <rect x="2596.33" y="23180.41" width="1182.63" height="1773.65"/>
    </clipPath>
    <clipPath id="id49">
     <rect x="9946.97" y="20587.62" width="1182.63" height="1773.64"/>
    </clipPath>
    <clipPath id="id50">
     <rect x="4177.44" y="18274.92" width="1182.63" height="1773.64"/>
    </clipPath>
    <clipPath id="id51">
     <rect x="8934.24" y="16060.35" width="1182.64" height="1773.65"/>
    </clipPath>
    <clipPath id="id52">
     <rect x="10011.43" y="13553.5" width="1182.63" height="1773.65"/>
    </clipPath>
    <clipPath id="id53">
     <rect x="18616.93" y="23180.41" width="1182.64" height="1773.64"/>
    </clipPath>
    <clipPath id="id54">
     <rect x="17539.75" y="20482.16" width="1182.64" height="1773.65"/>
    </clipPath>
    <clipPath id="id55">
     <rect x="9491.84" y="9036.08" width="1182.64" height="1773.65"/>
    </clipPath>
    <clipPath id="id56">
     <rect x="5904.73" y="7038.89" width="1182.63" height="1773.64"/>
    </clipPath>
    <clipPath id="id57">
     <rect x="7402.63" y="5166.51" width="1182.63" height="1773.65"/>
    </clipPath>
    <clipPath id="id58">
     <rect x="10264.62" y="3058.31" width="1182.64" height="1773.64"/>
    </clipPath>
    <clipPath id="id59">
     <rect x="4256.99" y="11292.07" width="1182.63" height="1773.65"/>
    </clipPath>
    <clipPath id="id60">
     <rect x="12478.83" y="9106.25" width="1182.64" height="1773.65"/>
    </clipPath>
    <clipPath id="id61">
     <rect x="12529.24" y="7080.49" width="1182.64" height="1773.65"/>
    </clipPath>
    <clipPath id="id62">
     <rect x="11670.69" y="3102.25" width="1182.63" height="1773.64"/>
    </clipPath>
    <clipPath id="id63">
     <rect x="5904.73" y="9036.08" width="1182.63" height="1773.65"/>
    </clipPath>
    <clipPath id="id64">
     <rect x="9607.86" y="6914.06" width="1182.64" height="1773.65"/>
    </clipPath>
    <clipPath id="id65">
     <rect x="10273.59" y="5124.91" width="1182.64" height="1773.65"/>
    </clipPath>
    <clipPath id="id66">
     <rect x="7276.72" y="3146.19" width="1182.63" height="1773.64"/>
    </clipPath>
    <clipPath id="id67">
     <rect x="4256.99" y="11375.29" width="1182.63" height="1773.65"/>
    </clipPath>
    <clipPath id="id68">
     <rect x="10847.31" y="9119.3" width="1182.63" height="1773.64"/>
    </clipPath>
    <clipPath id="id69">
     <rect x="8442.83" y="6914.06" width="1182.64" height="1773.65"/>
    </clipPath>
    <clipPath id="id70">
     <rect x="5946.33" y="5083.3" width="1182.64" height="1773.64"/>
    </clipPath>
    <clipPath id="id71">
     <rect x="8814.6" y="3058.31" width="1182.64" height="1773.64"/>
    </clipPath>
    <clipPath id="id72">
     <rect x="7236.19" y="9036.08" width="1182.64" height="1773.65"/>
    </clipPath>
    <clipPath id="id73">
     <rect x="7361.01" y="7038.89" width="1182.64" height="1773.64"/>
    </clipPath>
    <clipPath id="id74">
     <rect x="8858.91" y="5166.51" width="1182.64" height="1773.65"/>
    </clipPath>
    <clipPath id="id75">
     <rect x="5919.78" y="3146.02" width="1182.64" height="1773.64"/>
    </clipPath>
    <clipPath id="id76">
     <rect x="4256.99" y="11375.29" width="1182.63" height="1773.65"/>
    </clipPath>
    <clipPath id="id77">
     <rect x="8276.4" y="8994.48" width="1182.63" height="1773.64"/>
    </clipPath>
    <clipPath id="id78">
     <rect x="11064.15" y="7080.49" width="1182.64" height="1773.65"/>
    </clipPath>
    <clipPath id="id79">
     <rect x="11655.47" y="5306.85" width="1182.63" height="1773.64"/>
    </clipPath>
    <clipPath id="id80">
     <rect x="730.93" y="25562.71" width="1182.64" height="1773.64"/>
    </clipPath>
    <clipPath id="id81">
     <rect x="10708.37" y="25610.92" width="808.63" height="1773.64"/>
    </clipPath>
     <clipPath id="id82">
      <rect x="10708.37" y="25610.92" width="808.63" height="1773.64"/>
     </clipPath>
    <clipPath id="id83">
     <rect x="3910.79" y="25565.31" width="962.75" height="1773.64"/>
    </clipPath>
     <clipPath id="id84">
      <rect x="3910.79" y="25565.31" width="962.75" height="1773.64"/>
     </clipPath>
    <clipPath id="id85">
     <rect x="1014.5" y="23180.41" width="1182.63" height="1773.65"/>
    </clipPath>
    <clipPath id="id86">
     <rect x="8973.27" y="25587.28" width="844.96" height="1773.64"/>
    </clipPath>
     <clipPath id="id87">
      <rect x="8973.27" y="25587.28" width="844.96" height="1773.64"/>
     </clipPath>
    <clipPath id="id88">
     <rect x="9828.15" y="25597.35" width="881.35" height="1773.65"/>
    </clipPath>
     <clipPath id="id89">
      <rect x="9828.15" y="25597.35" width="881.35" height="1773.64"/>
     </clipPath>
    <clipPath id="id90">
     <rect x="6033.78" y="25568.4" width="829.25" height="1773.64"/>
    </clipPath>
     <clipPath id="id91">
      <rect x="6033.78" y="25568.4" width="829.24" height="1773.64"/>
     </clipPath>
    <clipPath id="id92">
     <rect x="6899.81" y="25575.86" width="994.16" height="1773.64"/>
    </clipPath>
     <clipPath id="id93">
      <rect x="6899.81" y="25575.86" width="994.16" height="1773.64"/>
     </clipPath>
    <clipPath id="id94">
     <rect x="7908.71" y="25582.49" width="1064.84" height="1773.64"/>
    </clipPath>
     <clipPath id="id95">
      <rect x="7908.71" y="25582.49" width="1064.84" height="1773.64"/>
     </clipPath>
    <clipPath id="id96">
     <rect x="4884.35" y="25569.36" width="1127.67" height="1773.64"/>
    </clipPath>
     <clipPath id="id97">
      <rect x="4884.35" y="25569.36" width="1127.67" height="1773.64"/>
     </clipPath>
    <clipPath id="id98">
     <rect x="1903.49" y="25566.62" width="845.16" height="1773.64"/>
    </clipPath>
     <clipPath id="id99">
      <rect x="1903.49" y="25566.62" width="845.16" height="1773.64"/>
     </clipPath>
    <clipPath id="id100">
     <rect x="2738.64" y="25566.86" width="1182.63" height="1773.65"/>
    </clipPath>
    <clipPath id="id101">
     <rect x="7979.75" y="1081.02" width="1182.64" height="1773.64"/>
    </clipPath>
    <clipPath id="id102">
     <rect x="9297.94" y="1212.84" width="1182.64" height="1773.64"/>
    </clipPath>
    <clipPath id="id103">
     <rect x="10835.84" y="1168.9" width="1182.63" height="1773.64"/>
    </clipPath>
    <clipPath id="id104">
     <rect x="6661.56" y="1124.95" width="1182.63" height="1773.65"/>
    </clipPath>
    <clipPath id="id105">
     <rect x="18118.27" y="25503.68" width="802.96" height="1774.01"/>
    </clipPath>
     <clipPath id="id106">
      <rect x="18118.27" y="25503.68" width="802.97" height="1774.01"/>
     </clipPath>
    <clipPath id="id107">
     <rect x="20214.5" y="25457.25" width="870.97" height="1773.65"/>
    </clipPath>
     <clipPath id="id108">
      <rect x="20214.5" y="25457.25" width="870.97" height="1773.64"/>
     </clipPath>
 </defs>
 <g id="Capa_x0020_1">
  <metadata id="CorelCorpID_0Corel-Layer"/>
  <g id="_1177798658608">
   <g style="clip-path:url(#id0)">
    <image x="5551.77" y="23084.5" width="1182.64" height="1773.64" xlink:href="1 a 3 cast_Images\1 a 3 cast_ImgID1.png"/>
   </g>
   <g style="clip-path:url(#id1)">
    <image x="6994.21" y="20745.8" width="1182.64" height="1773.64" xlink:href="1 a 3 cast_Images\1 a 3 cast_ImgID2.png"/>
   </g>
   <g style="clip-path:url(#id2)">
    <image x="6045.53" y="18274.92" width="1182.64" height="1773.64" xlink:href="1 a 3 cast_Images\1 a 3 cast_ImgID3.png"/>
   </g>
   <g style="clip-path:url(#id3)">
    <image x="4821.48" y="16165.81" width="1182.64" height="1773.64" xlink:href="1 a 3 cast_Images\1 a 3 cast_ImgID4.png"/>
   </g>
   <g style="clip-path:url(#id4)">
    <image x="4452.39" y="13687.61" width="1182.64" height="1773.64" xlink:href="1 a 3 cast_Images\1 a 3 cast_ImgID5.png"/>
   </g>
   <g style="clip-path:url(#id5)">
    <image x="9244.14" y="11438.03" width="1182.64" height="1773.64" xlink:href="1 a 3 cast_Images\1 a 3 cast_ImgID6.png"/>
   </g>
   <g style="clip-path:url(#id6)">
    <image x="15728.22" y="23233.13" width="1182.64" height="1773.64" xlink:href="1 a 3 cast_Images\1 a 3 cast_ImgID7.png"/>
   </g>
   <g style="clip-path:url(#id7)">
    <image x="11592.84" y="20693.07" width="1182.64" height="1773.64" xlink:href="1 a 3 cast_Images\1 a 3 cast_ImgID8.png"/>
   </g>
   <g style="clip-path:url(#id8)">
    <image x="10738.3" y="18433.1" width="1182.64" height="1773.64" xlink:href="1 a 3 cast_Images\1 a 3 cast_ImgID9.png"/>
   </g>
   <g style="clip-path:url(#id9)">
    <image x="10135.66" y="15902.17" width="1182.64" height="1773.64" xlink:href="1 a 3 cast_Images\1 a 3 cast_ImgID10.png"/>
   </g>
   <g style="clip-path:url(#id10)">
    <image x="11476.48" y="13634.88" width="1182.64" height="1773.64" xlink:href="1 a 3 cast_Images\1 a 3 cast_ImgID11.png"/>
   </g>
   <g style="clip-path:url(#id11)">
    <image x="7723.71" y="11438.03" width="1182.64" height="1773.64" xlink:href="1 a 3 cast_Images\1 a 3 cast_ImgID12.png"/>
   </g>
   <g style="clip-path:url(#id12)">
    <image x="1917.1" y="20798.54" width="1182.64" height="1773.64" xlink:href="1 a 3 cast_Images\1 a 3 cast_ImgID13.png"/>
   </g>
   <g style="clip-path:url(#id13)">
    <image x="7563.32" y="18274.92" width="1182.64" height="1773.64" xlink:href="1 a 3 cast_Images\1 a 3 cast_ImgID14.png"/>
   </g>
   <g style="clip-path:url(#id14)">
    <image x="6508.77" y="16113.08" width="1182.64" height="1773.64" xlink:href="1 a 3 cast_Images\1 a 3 cast_ImgID15.png"/>
   </g>
   <g style="clip-path:url(#id15)">
    <image x="12858.72" y="13625.33" width="1182.64" height="1773.64" xlink:href="1 a 3 cast_Images\1 a 3 cast_ImgID16.png"/>
   </g>
   <g style="clip-path:url(#id16)">
    <image x="10712.14" y="11438.03" width="1182.64" height="1773.64" xlink:href="1 a 3 cast_Images\1 a 3 cast_ImgID17.png"/>
   </g>
   <g style="clip-path:url(#id17)">
    <image x="14539.35" y="23233.13" width="1182.64" height="1773.64" xlink:href="1 a 3 cast_Images\1 a 3 cast_ImgID18.png"/>
   </g>
   <g style="clip-path:url(#id18)">
    <image x="15905.19" y="20482.16" width="1182.64" height="1773.64" xlink:href="1 a 3 cast_Images\1 a 3 cast_ImgID19.png"/>
   </g>
   <g style="clip-path:url(#id19)">
    <image x="16538.34" y="18219.85" width="1182.64" height="1773.64" xlink:href="1 a 3 cast_Images\1 a 3 cast_ImgID20.png"/>
   </g>
   <g style="clip-path:url(#id20)">
    <image x="17193.28" y="23233.14" width="1182.64" height="1773.64" xlink:href="1 a 3 cast_Images\1 a 3 cast_ImgID21.png"/>
   </g>
   <g style="clip-path:url(#id21)">
    <image x="13016.48" y="20640.35" width="1182.64" height="1773.64" xlink:href="1 a 3 cast_Images\1 a 3 cast_ImgID22.png"/>
   </g>
   <g style="clip-path:url(#id22)">
    <image x="11939.72" y="18284.47" width="1182.64" height="1773.64" xlink:href="1 a 3 cast_Images\1 a 3 cast_ImgID23.png"/>
   </g>
   <g style="clip-path:url(#id23)">
    <image x="13393.47" y="15763.09" width="1182.64" height="1773.64" xlink:href="1 a 3 cast_Images\1 a 3 cast_ImgID24.png"/>
   </g>
   <g style="clip-path:url(#id24)">
    <image x="6783.72" y="13529.43" width="1182.64" height="1773.64" xlink:href="1 a 3 cast_Images\1 a 3 cast_ImgID25.png"/>
   </g>
   <g style="clip-path:url(#id25)">
    <image x="13962.71" y="11280.74" width="1182.64" height="1773.64" xlink:href="1 a 3 cast_Images\1 a 3 cast_ImgID26.png"/>
   </g>
   <g style="clip-path:url(#id26)">
    <image x="10678.91" y="23233.13" width="1182.64" height="1773.64" xlink:href="1 a 3 cast_Images\1 a 3 cast_ImgID27.png"/>
   </g>
   <g style="clip-path:url(#id27)">
    <image x="5254.2" y="20745.8" width="1182.64" height="1773.64" xlink:href="1 a 3 cast_Images\1 a 3 cast_ImgID28.png"/>
   </g>
   <g style="clip-path:url(#id28)">
    <image x="14945.2" y="18485.83" width="1182.64" height="1773.64" xlink:href="1 a 3 cast_Images\1 a 3 cast_ImgID29.png"/>
   </g>
   <g style="clip-path:url(#id29)">
    <image x="3397.83" y="16113.08" width="1182.64" height="1773.64" xlink:href="1 a 3 cast_Images\1 a 3 cast_ImgID30.png"/>
   </g>
   <g style="clip-path:url(#id30)">
    <image x="14587.42" y="13687.61" width="1182.64" height="1773.64" xlink:href="1 a 3 cast_Images\1 a 3 cast_ImgID31.png"/>
   </g>
   <g style="clip-path:url(#id31)">
    <image x="12524.38" y="23338.58" width="1182.64" height="1773.64" xlink:href="1 a 3 cast_Images\1 a 3 cast_ImgID32.png"/>
   </g>
   <g style="clip-path:url(#id32)">
    <image x="14481.55" y="20587.62" width="1182.64" height="1773.64" xlink:href="1 a 3 cast_Images\1 a 3 cast_ImgID33.png"/>
   </g>
   <g style="clip-path:url(#id33)">
    <image x="13574.28" y="18380.37" width="1182.64" height="1773.64" xlink:href="1 a 3 cast_Images\1 a 3 cast_ImgID34.png"/>
   </g>
   <g style="clip-path:url(#id34)">
    <image x="14933.89" y="15964.45" width="1182.64" height="1773.64" xlink:href="1 a 3 cast_Images\1 a 3 cast_ImgID35.png"/>
   </g>
   <g style="clip-path:url(#id35)">
    <image x="9020.49" y="23127.68" width="1182.64" height="1773.64" xlink:href="1 a 3 cast_Images\1 a 3 cast_ImgID36.png"/>
   </g>
   <g style="clip-path:url(#id36)">
    <image x="3461.45" y="20851.25" width="1182.64" height="1773.64" xlink:href="1 a 3 cast_Images\1 a 3 cast_ImgID37.png"/>
   </g>
   <g style="clip-path:url(#id37)">
    <image x="9367.38" y="18433.1" width="1182.64" height="1773.64" xlink:href="1 a 3 cast_Images\1 a 3 cast_ImgID38.png"/>
   </g>
   <g style="clip-path:url(#id38)">
    <image x="11758.91" y="15700.81" width="1182.64" height="1773.64" xlink:href="1 a 3 cast_Images\1 a 3 cast_ImgID39.png"/>
   </g>
   <g style="clip-path:url(#id39)">
    <image x="8312.82" y="13634.88" width="1182.64" height="1773.64" xlink:href="1 a 3 cast_Images\1 a 3 cast_ImgID40.png"/>
   </g>
   <g style="clip-path:url(#id40)">
    <image x="5888.71" y="11385.6" width="1182.64" height="1773.64" xlink:href="1 a 3 cast_Images\1 a 3 cast_ImgID41.png"/>
   </g>
   <g style="clip-path:url(#id41)">
    <image x="7122.29" y="23127.68" width="1182.64" height="1773.64" xlink:href="1 a 3 cast_Images\1 a 3 cast_ImgID42.png"/>
   </g>
   <g style="clip-path:url(#id42)">
    <image x="8312.4" y="20587.62" width="1182.64" height="1773.64" xlink:href="1 a 3 cast_Images\1 a 3 cast_ImgID43.png"/>
   </g>
   <g style="clip-path:url(#id43)">
    <image x="2542.87" y="18284.47" width="1182.64" height="1773.64" xlink:href="1 a 3 cast_Images\1 a 3 cast_ImgID44.png"/>
   </g>
   <g style="clip-path:url(#id44)">
    <image x="7299.68" y="16069.91" width="1182.64" height="1773.64" xlink:href="1 a 3 cast_Images\1 a 3 cast_ImgID45.png"/>
   </g>
   <g style="clip-path:url(#id45)">
    <image x="5635.02" y="13687.61" width="1182.64" height="1773.64" xlink:href="1 a 3 cast_Images\1 a 3 cast_ImgID46.png"/>
   </g>
   <g style="clip-path:url(#id46)">
    <image x="12113.11" y="11385.6" width="1182.64" height="1773.64" xlink:href="1 a 3 cast_Images\1 a 3 cast_ImgID47.png"/>
   </g>
   <g style="clip-path:url(#id47)">
    <image x="3889.6" y="23103.18" width="1182.64" height="1773.64" xlink:href="1 a 3 cast_Images\1 a 3 cast_ImgID48.png"/>
   </g>
   <g style="clip-path:url(#id48)">
    <image x="2596.33" y="23180.41" width="1182.64" height="1773.64" xlink:href="1 a 3 cast_Images\1 a 3 cast_ImgID49.png"/>
   </g>
   <g style="clip-path:url(#id49)">
    <image x="9946.97" y="20587.62" width="1182.64" height="1773.64" xlink:href="1 a 3 cast_Images\1 a 3 cast_ImgID50.png"/>
   </g>
   <g style="clip-path:url(#id50)">
    <image x="4177.44" y="18274.92" width="1182.64" height="1773.64" xlink:href="1 a 3 cast_Images\1 a 3 cast_ImgID51.png"/>
   </g>
   <g style="clip-path:url(#id51)">
    <image x="8934.24" y="16060.35" width="1182.64" height="1773.64" xlink:href="1 a 3 cast_Images\1 a 3 cast_ImgID52.png"/>
   </g>
   <g style="clip-path:url(#id52)">
    <image x="10011.43" y="13553.5" width="1182.64" height="1773.64" xlink:href="1 a 3 cast_Images\1 a 3 cast_ImgID53.png"/>
   </g>
   <g style="clip-path:url(#id53)">
    <image x="18616.93" y="23180.41" width="1182.64" height="1773.64" xlink:href="1 a 3 cast_Images\1 a 3 cast_ImgID54.png"/>
   </g>
   <g style="clip-path:url(#id54)">
    <image x="17539.75" y="20482.16" width="1182.64" height="1773.64" xlink:href="1 a 3 cast_Images\1 a 3 cast_ImgID55.png"/>
   </g>
   <g style="clip-path:url(#id55)">
    <image x="9491.84" y="9036.08" width="1182.64" height="1773.64" xlink:href="1 a 3 cast_Images\1 a 3 cast_ImgID56.png"/>
   </g>
   <g style="clip-path:url(#id56)">
    <image x="5904.73" y="7038.89" width="1182.64" height="1773.64" xlink:href="1 a 3 cast_Images\1 a 3 cast_ImgID57.png"/>
   </g>
   <g style="clip-path:url(#id57)">
    <image x="7402.63" y="5166.51" width="1182.64" height="1773.64" xlink:href="1 a 3 cast_Images\1 a 3 cast_ImgID58.png"/>
   </g>
   <g style="clip-path:url(#id58)">
    <image x="10264.62" y="3058.31" width="1182.64" height="1773.64" xlink:href="1 a 3 cast_Images\1 a 3 cast_ImgID59.png"/>
   </g>
   <g style="clip-path:url(#id59)">
    <image x="4256.99" y="11292.07" width="1182.64" height="1773.64" xlink:href="1 a 3 cast_Images\1 a 3 cast_ImgID60.png"/>
   </g>
   <g style="clip-path:url(#id60)">
    <image x="12478.83" y="9106.25" width="1182.64" height="1773.64" xlink:href="1 a 3 cast_Images\1 a 3 cast_ImgID61.png"/>
   </g>
   <g style="clip-path:url(#id61)">
    <image x="12529.24" y="7080.49" width="1182.64" height="1773.64" xlink:href="1 a 3 cast_Images\1 a 3 cast_ImgID62.png"/>
   </g>
   <g style="clip-path:url(#id62)">
    <image x="11670.69" y="3102.25" width="1182.64" height="1773.64" xlink:href="1 a 3 cast_Images\1 a 3 cast_ImgID63.png"/>
   </g>
   <g style="clip-path:url(#id63)">
    <image x="5904.73" y="9036.08" width="1182.64" height="1773.64" xlink:href="1 a 3 cast_Images\1 a 3 cast_ImgID64.png"/>
   </g>
   <g style="clip-path:url(#id64)">
    <image x="9607.86" y="6914.06" width="1182.64" height="1773.64" xlink:href="1 a 3 cast_Images\1 a 3 cast_ImgID65.png"/>
   </g>
   <g style="clip-path:url(#id65)">
    <image x="10273.59" y="5124.91" width="1182.64" height="1773.64" xlink:href="1 a 3 cast_Images\1 a 3 cast_ImgID66.png"/>
   </g>
   <g style="clip-path:url(#id66)">
    <image x="7276.72" y="3146.19" width="1182.64" height="1773.64" xlink:href="1 a 3 cast_Images\1 a 3 cast_ImgID67.png"/>
   </g>
   <g style="clip-path:url(#id67)">
    <image x="4256.99" y="11375.29" width="1182.64" height="1773.64" xlink:href="1 a 3 cast_Images\1 a 3 cast_ImgID68.png"/>
   </g>
   <g style="clip-path:url(#id68)">
    <image x="10847.31" y="9119.3" width="1182.64" height="1773.64" xlink:href="1 a 3 cast_Images\1 a 3 cast_ImgID69.png"/>
   </g>
   <g style="clip-path:url(#id69)">
    <image x="8442.83" y="6914.06" width="1182.64" height="1773.64" xlink:href="1 a 3 cast_Images\1 a 3 cast_ImgID70.png"/>
   </g>
   <g style="clip-path:url(#id70)">
    <image x="5946.33" y="5083.3" width="1182.64" height="1773.64" xlink:href="1 a 3 cast_Images\1 a 3 cast_ImgID71.png"/>
   </g>
   <g style="clip-path:url(#id71)">
    <image x="8814.6" y="3058.31" width="1182.64" height="1773.64" xlink:href="1 a 3 cast_Images\1 a 3 cast_ImgID72.png"/>
   </g>
   <g style="clip-path:url(#id72)">
    <image x="7236.19" y="9036.08" width="1182.64" height="1773.64" xlink:href="1 a 3 cast_Images\1 a 3 cast_ImgID73.png"/>
   </g>
   <g style="clip-path:url(#id73)">
    <image x="7361.01" y="7038.89" width="1182.64" height="1773.64" xlink:href="1 a 3 cast_Images\1 a 3 cast_ImgID74.png"/>
   </g>
   <g style="clip-path:url(#id74)">
    <image x="8858.91" y="5166.51" width="1182.64" height="1773.64" xlink:href="1 a 3 cast_Images\1 a 3 cast_ImgID75.png"/>
   </g>
   <g style="clip-path:url(#id75)">
    <image x="5919.78" y="3146.02" width="1182.64" height="1773.64" xlink:href="1 a 3 cast_Images\1 a 3 cast_ImgID76.png"/>
   </g>
   <g style="clip-path:url(#id76)">
    <image x="4256.99" y="11375.29" width="1182.64" height="1773.64" xlink:href="1 a 3 cast_Images\1 a 3 cast_ImgID77.png"/>
   </g>
   <g style="clip-path:url(#id77)">
    <image x="8276.4" y="8994.48" width="1182.64" height="1773.64" xlink:href="1 a 3 cast_Images\1 a 3 cast_ImgID78.png"/>
   </g>
   <g style="clip-path:url(#id78)">
    <image x="11064.15" y="7080.49" width="1182.64" height="1773.64" xlink:href="1 a 3 cast_Images\1 a 3 cast_ImgID79.png"/>
   </g>
   <g style="clip-path:url(#id79)">
    <image x="11655.47" y="5306.85" width="1182.64" height="1773.64" xlink:href="1 a 3 cast_Images\1 a 3 cast_ImgID80.png"/>
   </g>
   <g style="clip-path:url(#id80)">
    <image x="730.93" y="25562.71" width="1182.64" height="1773.64" xlink:href="1 a 3 cast_Images\1 a 3 cast_ImgID81.png"/>
   </g>
   <g style="clip-path:url(#id81)">
    <image style="clip-path:url(#id82)" x="10542.15" y="25610.92" width="1182.64" height="1773.64" xlink:href="1 a 3 cast_Images\1 a 3 cast_ImgID82.png"/>
   </g>
   <g style="clip-path:url(#id83)">
    <image style="clip-path:url(#id84)" x="3722.31" y="25565.31" width="1182.64" height="1773.64" xlink:href="1 a 3 cast_Images\1 a 3 cast_ImgID83.png"/>
   </g>
   <g style="clip-path:url(#id85)">
    <image x="1014.5" y="23180.41" width="1182.64" height="1773.64" xlink:href="1 a 3 cast_Images\1 a 3 cast_ImgID84.png"/>
   </g>
   <g style="clip-path:url(#id86)">
    <image style="clip-path:url(#id87)" x="8808.36" y="25587.28" width="1182.64" height="1773.64" xlink:href="1 a 3 cast_Images\1 a 3 cast_ImgID85.png"/>
   </g>
   <g style="clip-path:url(#id88)">
    <image style="clip-path:url(#id89)" x="9713.87" y="25597.35" width="1182.64" height="1773.64" xlink:href="1 a 3 cast_Images\1 a 3 cast_ImgID86.png"/>
   </g>
   <g style="clip-path:url(#id90)">
    <image style="clip-path:url(#id91)" x="5790.33" y="25568.4" width="1182.64" height="1773.64" xlink:href="1 a 3 cast_Images\1 a 3 cast_ImgID87.png"/>
   </g>
   <g style="clip-path:url(#id92)">
    <image style="clip-path:url(#id93)" x="6821.28" y="25575.86" width="1182.64" height="1773.64" xlink:href="1 a 3 cast_Images\1 a 3 cast_ImgID88.png"/>
   </g>
   <g style="clip-path:url(#id94)">
    <image style="clip-path:url(#id95)" x="7845.89" y="25582.49" width="1182.64" height="1773.64" xlink:href="1 a 3 cast_Images\1 a 3 cast_ImgID89.png"/>
   </g>
   <g style="clip-path:url(#id96)">
    <image style="clip-path:url(#id97)" x="4860.79" y="25569.36" width="1182.64" height="1773.64" xlink:href="1 a 3 cast_Images\1 a 3 cast_ImgID90.png"/>
   </g>
   <g style="clip-path:url(#id98)">
    <image style="clip-path:url(#id99)" x="1791" y="25566.62" width="1182.64" height="1773.64" xlink:href="1 a 3 cast_Images\1 a 3 cast_ImgID91.png"/>
   </g>
   <g style="clip-path:url(#id100)">
    <image x="2738.64" y="25566.86" width="1182.64" height="1773.64" xlink:href="1 a 3 cast_Images\1 a 3 cast_ImgID92.png"/>
   </g>
   <g style="clip-path:url(#id101)">
    <image x="7979.75" y="1081.02" width="1182.64" height="1773.64" xlink:href="1 a 3 cast_Images\1 a 3 cast_ImgID93.png"/>
   </g>
   <g style="clip-path:url(#id102)">
    <image x="9297.94" y="1212.84" width="1182.64" height="1773.64" xlink:href="1 a 3 cast_Images\1 a 3 cast_ImgID94.png"/>
   </g>
   <g style="clip-path:url(#id103)">
    <image x="10835.84" y="1168.9" width="1182.64" height="1773.64" xlink:href="1 a 3 cast_Images\1 a 3 cast_ImgID95.png"/>
   </g>
   <g style="clip-path:url(#id104)">
    <image x="6661.56" y="1124.95" width="1182.64" height="1773.64" xlink:href="1 a 3 cast_Images\1 a 3 cast_ImgID96.png"/>
   </g>
   <g style="clip-path:url(#id105)">
    <image style="clip-path:url(#id106)" x="17879.59" y="25503.68" width="1182.67" height="1774.01" xlink:href="1 a 3 cast_Images\1 a 3 cast_ImgID97.png"/>
   </g>
   <g style="clip-path:url(#id107)">
    <image style="clip-path:url(#id108)" x="20037.89" y="25457.25" width="1182.64" height="1773.64" xlink:href="1 a 3 cast_Images\1 a 3 cast_ImgID98.png"/>
   </g>
  </g>
 </g>
</svg>
