<?xml version="1.0" encoding="UTF-8"?>
<!DOCTYPE svg PUBLIC "-//W3C//DTD SVG 1.1//EN" "http://www.w3.org/Graphics/SVG/1.1/DTD/svg11.dtd">
<!-- Creator: CorelDRAW Standard 2021 (64-Bit Versión de evaluación) -->
<svg xmlns="http://www.w3.org/2000/svg" xml:space="preserve" width="215.9mm" height="279.4mm" version="1.1" style="shape-rendering:geometricPrecision; text-rendering:geometricPrecision; image-rendering:optimizeQuality; fill-rule:evenodd; clip-rule:evenodd"
viewBox="0 0 21590 27940"
 xmlns:xlink="http://www.w3.org/1999/xlink"
 xmlns:xodm="http://www.corel.com/coreldraw/odm/2003">
 <defs>
  <style type="text/css">
   <![CDATA[
    .str0 {stroke:#373435;stroke-width:20;stroke-miterlimit:22.9256}
    .fil0 {fill:none}
   ]]>
  </style>
   <clipPath id="id0">
    <path d="M14177.99 128.94l6719.19 0 0 8695.42 -6719.19 0 0 -8695.42z"/>
   </clipPath>
    <clipPath id="id1">
     <path d="M14177.99 128.94l6719.19 0 0 8695.42 -6719.19 0 0 -8695.42z"/>
    </clipPath>
    <clipPath id="id2">
     <path d="M14177.99 128.94l6719.19 0 0 8695.42 -6719.19 0 0 -8695.42z"/>
    </clipPath>
   <clipPath id="id3">
    <path d="M400.47 121.89l6719.19 0 0 8695.42 -6719.19 0 0 -8695.42z"/>
   </clipPath>
    <clipPath id="id4">
     <path d="M400.47 121.89l6719.19 0 0 8695.42 -6719.19 0 0 -8695.42z"/>
    </clipPath>
    <clipPath id="id5">
     <path d="M400.47 121.89l6719.19 0 0 8695.42 -6719.19 0 0 -8695.42z"/>
    </clipPath>
   <clipPath id="id6">
    <path d="M7264.87 100.76l6719.19 0 0 8695.42 -6719.19 0 0 -8695.42z"/>
   </clipPath>
    <clipPath id="id7">
     <path d="M7264.87 100.76l6719.19 0 0 8695.42 -6719.19 0 0 -8695.42z"/>
    </clipPath>
    <clipPath id="id8">
     <path d="M7264.87 100.76l6719.19 0 0 8695.42 -6719.19 0 0 -8695.42z"/>
    </clipPath>
   <clipPath id="id9">
    <path d="M380.41 8963.06l6719.19 0 0 8695.42 -6719.19 0 0 -8695.42z"/>
   </clipPath>
    <clipPath id="id10">
     <path d="M380.41 8963.06l6719.19 0 0 8695.42 -6719.19 0 0 -8695.42z"/>
    </clipPath>
    <clipPath id="id11">
     <path d="M380.41 8963.06l6719.19 0 0 8695.42 -6719.19 0 0 -8695.42z"/>
    </clipPath>
   <clipPath id="id12">
    <path d="M7266.49 9007.19l6719.19 0 0 8695.42 -6719.19 0 0 -8695.42z"/>
   </clipPath>
    <clipPath id="id13">
     <path d="M7266.49 9007.19l6719.19 0 0 8695.42 -6719.19 0 0 -8695.42z"/>
    </clipPath>
    <clipPath id="id14">
     <path d="M7266.49 9007.19l6719.19 0 0 8695.42 -6719.19 0 0 -8695.42z"/>
    </clipPath>
   <clipPath id="id15">
    <path d="M14167.63 9061.23l6719.19 0 0 8695.42 -6719.19 0 0 -8695.42z"/>
   </clipPath>
    <clipPath id="id16">
     <path d="M20886.82 9064.43l0 8689.02 -6719.19 0 0 -8689.02 6719.19 0z"/>
    </clipPath>
    <clipPath id="id17">
     <path d="M14167.63 9061.23l6719.19 0 0 8695.42 -6719.19 0 0 -8695.42z"/>
    </clipPath>
   <clipPath id="id18">
    <path d="M7234.32 17826.47l6719.19 0 0 8695.42 -6719.19 0 0 -8695.42z"/>
   </clipPath>
    <clipPath id="id19">
     <path d="M7234.32 17826.47l6719.19 0 0 8695.42 -6719.19 0 0 -8695.42z"/>
    </clipPath>
    <clipPath id="id20">
     <path d="M7234.32 17826.47l6719.19 0 0 8695.42 -6719.19 0 0 -8695.42z"/>
    </clipPath>
   <clipPath id="id21">
    <path d="M14124.42 17921.06l6719.19 0 0 8695.42 -6719.19 0 0 -8695.42z"/>
   </clipPath>
    <clipPath id="id22">
     <path d="M14124.42 17921.06l6719.19 0 0 8695.42 -6719.19 0 0 -8695.42z"/>
    </clipPath>
    <clipPath id="id23">
     <path d="M14124.42 17921.06l6719.19 0 0 8695.42 -6719.19 0 0 -8695.42z"/>
    </clipPath>
   <clipPath id="id24">
    <path d="M372.22 17823.35l6719.19 0 0 8695.42 -6719.19 0 0 -8695.42z"/>
   </clipPath>
    <clipPath id="id25">
     <path d="M372.22 17823.35l6719.19 0 0 8695.42 -6719.19 0 0 -8695.42z"/>
    </clipPath>
    <clipPath id="id26">
     <path d="M372.22 17823.35l6719.19 0 0 8695.42 -6719.19 0 0 -8695.42z"/>
    </clipPath>
 </defs>
 <g id="Capa_x0020_1">
  <metadata id="CorelCorpID_0Corel-Layer"/>
  <g>
  </g>
  <g style="clip-path:url(#id0)">
   <g>
   </g>
   <g style="clip-path:url(#id1)">
    <image x="13950.65" y="120.05" width="7173.87" height="8713.2" xlink:href="rupaul 1_Images\rupaul 1_ImgID1.png"/>
   </g>
   <g style="clip-path:url(#id2)">
   </g>
  </g>
  <polygon class="fil0 str0" points="14177.99,128.94 20897.18,128.94 20897.18,8824.36 14177.99,8824.36 "/>
  <g>
  </g>
  <g style="clip-path:url(#id3)">
   <g>
   </g>
   <g style="clip-path:url(#id4)">
    <image x="361.86" y="-185.47" width="6796.41" height="9310.14" xlink:href="rupaul 1_Images\rupaul 1_ImgID2.png"/>
   </g>
   <g style="clip-path:url(#id5)">
   </g>
  </g>
  <polygon class="fil0 str0" points="400.47,121.89 7119.66,121.89 7119.66,8817.31 400.47,8817.31 "/>
  <g>
  </g>
  <g style="clip-path:url(#id6)">
   <g>
   </g>
   <g style="clip-path:url(#id7)">
    <image x="7249.92" y="-31.02" width="6749.09" height="8958.97" xlink:href="rupaul 1_Images\rupaul 1_ImgID3.png"/>
   </g>
   <g style="clip-path:url(#id8)">
   </g>
  </g>
  <polygon class="fil0 str0" points="7264.87,100.76 13984.06,100.76 13984.06,8796.18 7264.87,8796.18 "/>
  <g>
  </g>
  <g style="clip-path:url(#id9)">
   <g>
   </g>
   <g style="clip-path:url(#id10)">
    <image x="359.47" y="8843.09" width="6761.07" height="8935.36" xlink:href="rupaul 1_Images\rupaul 1_ImgID4.png"/>
   </g>
   <g style="clip-path:url(#id11)">
   </g>
  </g>
  <polygon class="fil0 str0" points="380.41,8963.06 7099.6,8963.06 7099.6,17658.48 380.41,17658.48 "/>
  <g>
  </g>
  <g style="clip-path:url(#id12)">
   <g>
   </g>
   <g style="clip-path:url(#id13)">
    <image x="7252.88" y="8847.27" width="6746.42" height="9015.27" xlink:href="rupaul 1_Images\rupaul 1_ImgID5.png"/>
   </g>
   <g style="clip-path:url(#id14)">
   </g>
  </g>
  <polygon class="fil0 str0" points="7266.49,9007.19 13985.68,9007.19 13985.68,17702.61 7266.49,17702.61 "/>
  <g>
  </g>
  <g style="clip-path:url(#id15)">
   <g>
   </g>
   <g style="clip-path:url(#id16)">
    <image x="14080.59" y="9064.43" width="6893.28" height="8689.02" xlink:href="rupaul 1_Images\rupaul 1_ImgID6.png"/>
   </g>
   <g style="clip-path:url(#id17)">
   </g>
  </g>
  <polygon class="fil0 str0" points="14167.63,9061.23 20886.82,9061.23 20886.82,17756.65 14167.63,17756.65 "/>
  <g>
  </g>
  <g style="clip-path:url(#id18)">
   <g>
   </g>
   <g style="clip-path:url(#id19)">
    <image x="7131.84" y="17810.22" width="6924.15" height="8727.92" xlink:href="rupaul 1_Images\rupaul 1_ImgID7.png"/>
   </g>
   <g style="clip-path:url(#id20)">
   </g>
  </g>
  <polygon class="fil0 str0" points="7234.32,17826.47 13953.51,17826.47 13953.51,26521.89 7234.32,26521.89 "/>
  <g>
  </g>
  <g style="clip-path:url(#id21)">
   <g>
   </g>
   <g style="clip-path:url(#id22)">
    <image x="14030.66" y="17390.11" width="6906.7" height="9757.33" xlink:href="rupaul 1_Images\rupaul 1_ImgID8.png"/>
   </g>
   <g style="clip-path:url(#id23)">
   </g>
  </g>
  <polygon class="fil0 str0" points="14124.42,17921.06 20843.61,17921.06 20843.61,26616.48 14124.42,26616.48 "/>
  <g>
  </g>
  <g style="clip-path:url(#id24)">
   <g>
   </g>
   <g style="clip-path:url(#id25)">
    <image x="347.03" y="17697.77" width="6769.57" height="8946.57" xlink:href="rupaul 1_Images\rupaul 1_ImgID9.png"/>
   </g>
   <g style="clip-path:url(#id26)">
   </g>
  </g>
  <polygon class="fil0 str0" points="372.22,17823.35 7091.41,17823.35 7091.41,26518.77 372.22,26518.77 "/>
 </g>
</svg>
